<svg xmlns="http://www.w3.org/2000/svg" viewBox="0 0 492.395 418" focusable="false" aria-hidden="true"><g fill="#ff69b4" fill-rule="evenodd" clip-rule="evenodd"><path d="M212.19 164.454c-10.575-15.01-9.585-36.534 6.463-51.966 16.05-15.432 42.987-15.09 59.526 7.246 16.803 22.698 16.01 61.866-8.99 85.958-25.008 24.098-66.526 22.463-90.754-12.808-23.639-34.42-20.838-91.332 15.402-126.172 36.202-34.8 97.342-34.82 135.856 15.236 39.97 51.947 39.53 143.633-19.065 200.147-37.454 36.142-205.572 77.966-300.985-.715l-.039-1.107c101.57 80.081 259.448 22.689 293.371-10.027 53.073-51.182 53.69-134.251 17.586-181.495-34.908-45.68-90.57-45.788-123.555-14.072-33.019 31.746-35.496 83.607-13.934 114.899 22.052 32 59.76 33.43 82.461 11.564 22.688-21.865 23.452-57.42 8.216-78.062-15.012-20.339-39.511-20.681-54.111-6.64-14.6 14.052-15.501 33.304-5.866 46.954 9.724 13.787 9.116 16.235-1.577 1.057l-.004.003z"/><path d="M317.154 356.772c-1.498 9.146 4.524 20.329 15.217 23.756 10.684 3.418 22.816-2.693 25.41-16.44 2.634-13.973-6.325-31.53-22.981-36.956-16.715-5.435-35.3 4.485-38.532 25.88-3.143 20.858 10.751 46.013 34.918 53.69 24.06 7.648 51.692-5.894 58.155-36.926 6.698-32.235-13.522-73.665-52.554-86.52-25.077-8.264-44.76-4.053-63.335 11.879l5.063 5.894c16.871-14.364 34.693-18.154 57.4-10.683 35.36 11.623 53.798 49.107 47.816 78.373-5.788 28.289-30.924 40.667-52.858 33.685-22.023-7.002-34.655-29.944-31.756-48.921 2.967-19.428 19.848-28.407 35.017-23.471 15.118 4.915 23.275 20.847 20.906 33.547-2.34 12.505-13.376 18.077-23.09 14.962-9.743-3.113-15.217-13.297-13.846-21.62 1.38-8.401.558-9.38-.95-.128zM187.19 349.794c-5.983.823-11.819 6.747-11.936 14.11-.127 7.354 5.973 13.788 15.02 12.77 9.195-1.039 18.459-10.048 18.694-21.534.245-11.515-9.42-21.259-23.354-19.163-13.601 2.037-26.654 15.599-26.889 32.226-.235 16.559 13.386 31.266 33.94 29.337 21.347-1.997 43.349-22.659 44.015-49.596.431-17.312-5.885-28.838-19.31-37.416l-2.712 4.309c12.122 7.814 17.831 18.252 17.45 33.92-.598 24.41-20.476 43.192-39.845 45.072-18.702 1.822-31.138-11.555-30.923-26.653.225-15.149 12.142-27.486 24.51-29.328 12.66-1.88 21.425 6.972 21.21 17.43-.215 10.428-8.608 18.614-16.97 19.564-8.225.95-13.778-4.896-13.67-11.594.118-6.697 5.435-12.093 10.87-12.837 5.492-.755 5.951-1.45-.098-.618l-.002.001zM143.228 290.818c2.497-3.388 2.36-9.165-1.282-12.759-3.633-3.584-9.822-3.613-13.71 1.41-3.945 5.112-3.926 14.072 1.724 19.712 5.67 5.65 15.256 5.474 20.975-2.526 5.58-7.795 5.121-20.847-3.114-28.946-8.196-8.059-22.209-8.284-31.227 2.948-9.361 11.662-9.684 32.607 3.515 45.875 8.48 8.52 17.342 10.88 28.162 8.265l-.842-3.437c-9.812 2.34-17.832.187-25.508-7.52-11.966-12.005-11.731-30.982-3.261-41.596 8.176-10.262 20.936-10.076 28.407-2.722 7.5 7.373 7.902 19.27 2.81 26.36-5.209 7.246-13.914 7.393-19.055 2.272-5.13-5.112-5.16-13.249-1.576-17.9 3.525-4.582 9.155-4.563 12.464-1.293 3.31 3.27 3.437 8.53 1.166 11.613-2.291 3.115-2.164 3.683.352.244zM246.151 195.08c5.533-5.884 13.317-26.095 12.818-37.523-.754-17.234-9.773-19.084-18.546-18.83-11.751.333-14.551 3.32-14.12 12.005.723 14.403 28.014 32.685 19.848 44.348zM306.642 204.632c4.152 11.339-9.713 42.037-20.72 54.365-16.303 18.252-30.59 16.01-39.472 7.794-11.77-10.898-12.073-16.637-4.161-25.743 13.308-15.324 62.406-15.501 64.353-36.416zM308.867 71.703c-6.815-4.22-19.535-21.62-22.022-32.637-3.711-16.421 3.29-23.814 11.516-25.772 10.947-2.595 23.275 3.124 16.215 7.618-14.032 8.93-16.568 41.674-5.709 50.791zM330.475 84.189c-4.877-3.046-13.963-15.59-15.746-23.54-2.644-11.839 2.36-17.176 8.235-18.586 7.825-1.87 16.638 2.252 11.584 5.493C324.522 54 322.71 77.62 330.475 84.19z"/><path d="M388.77 355.915c-1.194 3.466-.567 13.416 1.861 18.155 3.643 7.128 8.46 7.745 12.025 5.983 4.73-2.32 7.363-8.049 3.486-7.599-7.755.91-18.556-10.165-17.371-16.539zM127.312 264.539c2.243-.333 7.452-3.349 9.284-5.797 2.643-3.555 1.694-6.022-.098-7.324-2.38-1.723-5.983-1.674-4.759.088 2.458 3.563-.577 11.897-4.427 13.033zM365.7 220.178c16.107 2.868 59.026-6.11 77.766-19.3 27.917-19.633 27.477-40.245 17.792-54.346-12.935-18.83-20.818-20.319-34.81-10.644-23.472 16.226-31.865 85.262-60.75 84.287l.001.003zM339.878 263.844c9.704 9.136 43.183 22.091 62.053 21.356 28.172-1.097 37.131-15.58 36.73-29.67-.529-18.741-5.318-23.256-19.31-22.786-23.413.803-60.172 44.623-79.475 31.1h.002zM445.335 229.643c1.635 1.733 1.557 4.465-.166 6.09a4.293 4.293 0 0 1-6.081-.196c-1.635-1.733-1.567-4.455.157-6.08a4.304 4.304 0 0 1 6.09.186zM449.263 240.383c1.636 1.733 1.557 4.465-.166 6.09-1.723 1.626-4.446 1.538-6.08-.195s-1.567-4.456.166-6.091c1.723-1.624 4.445-1.537 6.08.196zM450.14 251.726c1.635 1.734 1.567 4.456-.157 6.081a4.304 4.304 0 0 1-6.09-.186c-1.635-1.733-1.557-4.465.166-6.09a4.296 4.296 0 0 1 6.081.195zM459.337 126.286c2.223.588 3.623 2.879 3.153 5.141-.48 2.272-2.684 3.672-4.926 3.104-2.262-.558-3.691-2.889-3.192-5.18.51-2.281 2.732-3.651 4.965-3.065zM467.004 135.167c2.301.548 3.75 2.889 3.242 5.228-.51 2.36-2.8 3.849-5.131 3.33-2.34-.529-3.82-2.908-3.281-5.288.538-2.37 2.859-3.828 5.17-3.27zM450.144 118.865c2.409.54 3.907 2.938 3.349 5.357-.559 2.438-2.977 4.005-5.425 3.486a4.454 4.454 0 0 1-3.397-5.415c.587-2.449 3.044-3.985 5.473-3.428zM448.308 263.3c1.636 1.733 1.567 4.455-.156 6.08a4.304 4.304 0 0 1-6.09-.186c-1.636-1.733-1.558-4.465.165-6.09a4.296 4.296 0 0 1 6.081.196zM443.287 273.86c1.635 1.734 1.566 4.456-.157 6.081a4.304 4.304 0 0 1-6.09-.186c-1.636-1.733-1.557-4.465.166-6.09a4.296 4.296 0 0 1 6.08.195zM472.837 145.597c2.302.548 3.75 2.889 3.242 5.228-.51 2.36-2.8 3.849-5.131 3.33-2.34-.529-3.819-2.908-3.28-5.288.538-2.37 2.859-3.828 5.17-3.27zM475.842 156.38c2.302.548 3.75 2.889 3.242 5.228-.51 2.36-2.8 3.849-5.131 3.33-2.34-.529-3.819-2.908-3.28-5.288.538-2.37 2.859-3.828 5.17-3.27z"/></g></svg>