<?xml version="1.0" encoding="UTF-8" standalone="no"?>
<svg
   xmlns:dc="http://purl.org/dc/elements/1.1/"
   xmlns:cc="http://creativecommons.org/ns#"
   xmlns:rdf="http://www.w3.org/1999/02/22-rdf-syntax-ns#"
   xmlns:svg="http://www.w3.org/2000/svg"
   xmlns="http://www.w3.org/2000/svg"
   xmlns:sodipodi="http://sodipodi.sourceforge.net/DTD/sodipodi-0.dtd"
   xmlns:inkscape="http://www.inkscape.org/namespaces/inkscape"
   viewBox="0 0 500 500"
   version="1.1"
   id="svg3843"
   sodipodi:docname="backgroundvector.svg"
   inkscape:version="0.92.1 r15371">
  <metadata
     id="metadata3849">
    <rdf:RDF>
      <cc:Work
         rdf:about="">
        <dc:format>image/svg+xml</dc:format>
        <dc:type
           rdf:resource="http://purl.org/dc/dcmitype/StillImage" />
      </cc:Work>
    </rdf:RDF>
  </metadata>
  <defs
     id="defs3847" />
  <sodipodi:namedview
     pagecolor="#ffffff"
     bordercolor="#666666"
     borderopacity="1"
     objecttolerance="10"
     gridtolerance="10"
     guidetolerance="10"
     inkscape:pageopacity="0"
     inkscape:pageshadow="2"
     inkscape:window-width="2560"
     inkscape:window-height="1027"
     id="namedview3845"
     showgrid="false"
     inkscape:zoom="4"
     inkscape:cx="446.55145"
     inkscape:cy="206.90819"
     inkscape:window-x="-8"
     inkscape:window-y="-8"
     inkscape:window-maximized="1"
     inkscape:current-layer="svg3843" />
  <g
     transform="matrix(.73923 0 0 .73923 -28.067 -36.937)"
     fill="#ed5050"
     fill-rule="evenodd"
     id="g3841">
    <path
       d="m333.94 314.37c-14.306-20.306-12.968-49.422 8.7425-70.298 21.711-20.876 58.151-20.413 80.524 9.8023 22.731 30.705 21.658 83.69-12.16 116.28-33.831 32.599-89.995 30.387-122.77-17.326-31.977-46.561-28.188-123.55 20.836-170.68 48.972-47.077 131.68-47.104 183.78 20.611 54.071 70.272 53.475 194.3-25.79 270.75-50.667 48.892-278.09 105.47-407.16-0.96698l-0.053-1.4968c137.4 108.33 350.97 30.692 396.86-13.564 71.795-69.238 72.629-181.61 23.79-245.52-47.223-61.794-122.52-61.94-167.14-19.035-44.667 42.944-48.018 113.1-18.85 155.43 29.831 43.289 80.842 45.223 111.55 15.644 30.692-29.579 31.725-77.676 11.114-105.6-20.307-27.513-53.449-27.976-73.199-8.981-19.75 19.008-20.969 45.051-7.9345 63.516 13.154 18.651 12.332 21.962-2.1326 1.4306z"
       id="path3781" />
    <path
       d="m475.93 574.53c-2.0267 12.372 6.1198 27.499 20.585 32.136 14.452 4.623 30.864-3.6427 34.374-22.24 3.5633-18.902-8.5571-42.653-31.089-49.992-22.611-7.3518-47.753 6.0668-52.124 35.01-4.2521 28.215 14.544 62.244 47.236 72.629 32.546 10.345 69.927-7.9742 78.67-49.952 9.0604-43.607-18.293-99.652-71.093-117.04-33.924-11.18-60.549-5.484-85.677 16.068l6.8483 7.9743c22.823-19.432 46.932-24.559 77.65-14.452 47.832 15.723 72.775 66.43 64.682 106.02-7.8286 38.268-41.832 55.012-71.504 45.567-29.791-9.4711-46.879-40.507-42.958-66.178 4.0136-26.281 26.85-38.428 47.369-31.751 20.452 6.6496 31.486 28.201 28.281 45.382-3.1659 16.916-18.094 24.453-31.235 20.24-13.18-4.2123-20.585-17.988-18.73-29.248 1.8677-11.364 0.75504-12.689-1.2849-0.17224z"
       id="path3783" />
    <path
       d="m300.12 565.09c-8.0935 1.1127-15.988 9.1267-16.147 19.088-0.17221 9.9479 8.0802 18.651 20.32 17.273 12.438-1.404 24.969-13.591 25.287-29.129 0.33115-15.578-12.743-28.758-31.592-25.923-18.399 2.7552-36.056 21.101-36.374 43.594-0.3179 22.4 18.108 42.295 45.912 39.686 28.877-2.7023 58.641-30.652 59.542-67.092 0.58286-23.419-7.961-39.01-26.122-50.614l-3.6692 5.8284c16.399 10.571 24.122 24.691 23.605 45.885-0.80804 33.023-27.698 58.429-53.899 60.973-25.3 2.4638-42.123-15.631-41.832-36.056 0.30466-20.492 16.425-37.182 33.156-39.673 17.127-2.5433 28.983 9.4314 28.692 23.578-0.29141 14.107-11.644 25.181-22.956 26.466-11.127 1.2849-18.638-6.6231-18.492-15.684 0.15897-9.0605 7.3517-16.359 14.703-17.366 7.4312-1.0213 8.0524-1.9618-0.13248-0.83453z"
       id="path3785" />
    <path
       d="m240.65 485.31c3.3778-4.5832 3.1924-12.398-1.7353-17.26-4.9144-4.8481-13.286-4.8879-18.545 1.9075-5.3382 6.9146-5.3118 19.035 2.3314 26.665 7.6696 7.6431 20.638 7.4047 28.374-3.4175 7.5504-10.544 6.9278-28.201-4.2123-39.156-11.087-10.902-30.043-11.206-42.242 3.9871-12.664 15.776-13.101 44.11 4.7554 62.059 11.471 11.524 23.459 14.717 38.096 11.18l-1.1392-4.6495c-13.273 3.1659-24.122 0.25171-34.507-10.173-16.187-16.24-15.869-41.911-4.411-56.27 11.061-13.882 28.321-13.63 38.428-3.6825 10.147 9.9745 10.69 26.069 3.8017 35.659-7.047 9.8022-18.823 10.001-25.777 3.0731-6.9411-6.9146-6.9808-17.922-2.1327-24.214 4.7687-6.1993 12.385-6.1728 16.862-1.7485 4.4772 4.4243 4.6494 11.538 1.5763 15.71-3.0996 4.2123-2.9274 4.9806 0.47685 0.33115z"
       id="path3787" />
    <path
       d="m379.88 355.8c7.4842-7.961 18.015-35.301 17.339-50.76-1.02-23.314-13.22-25.817-25.088-25.473-15.896 0.45038-19.684 4.4905-19.101 16.24 0.97891 19.484 37.896 44.215 26.85 59.992z"
       id="path3789" />
    <path
       d="m461.71 368.72c5.6164 15.339-13.14 56.866-28.029 73.543-22.055 24.691-41.381 21.658-53.396 10.544-15.922-14.743-16.333-22.506-5.6297-34.824 18.002-20.73 84.42-20.97 87.055-49.263z"
       id="path3791" />
    <path
       d="m464.72 188.9c-9.2194-5.7092-26.426-29.248-29.791-44.15-5.0204-22.214 4.4507-32.215 15.578-34.864 14.809-3.5103 31.486 4.2256 21.936 10.306-18.982 12.081-22.413 56.375-7.7226 68.708z"
       id="path3793" />
    <path
       d="m493.95 205.79c-6.5967-4.1196-18.889-21.088-21.3-31.844-3.5765-16.015 3.1923-23.234 11.14-25.142 10.584-2.53 22.506 3.0466 15.67 7.4312-13.563 8.7147-16.015 40.666-5.5104 49.554z"
       id="path3795" />
    <path
       d="m572.81 573.37c-1.616 4.6892-0.76831 18.148 2.5168 24.559 4.9276 9.6433 11.445 10.478 16.266 8.0935 6.398-3.1394 9.9612-10.888 4.7156-10.279-10.491 1.2305-25.102-13.751-23.499-22.373z"
       id="path3797" />
    <path
       d="m219.12 449.76c3.0334-0.45038 10.08-4.5302 12.558-7.8418 3.5765-4.8084 2.2916-8.1465-0.13246-9.9069-3.2189-2.3314-8.0935-2.2651-6.4377 0.11923 3.3248 4.819-0.78154 16.093-5.9873 17.63z"
       id="path3799" />
    <path
       d="m541.6 389.75c21.79 3.8812 79.849-8.2657 105.2-26.108 37.765-26.559 37.169-54.442 24.068-73.517-17.498-25.473-28.162-27.486-47.091-14.399-31.751 21.95-43.104 115.34-82.18 114.02z"
       id="path3801" />
    <path
       d="m506.67 448.82c13.127 12.359 58.416 29.884 83.942 28.89 38.11-1.4836 50.23-21.075 49.687-40.136-0.71527-25.353-7.1928-31.46-26.122-30.824-31.672 1.0862-81.398 60.363-107.51 42.07z"
       id="path3803" />
    <path
       d="m 649.32785,402.5536 c 2.2121,2.3446 2.1061,6.0403 -0.22522,8.2392 -2.3314,2.1989 -6.0138,2.0929 -8.226,-0.26492 -2.2121,-2.3446 -2.1194,-6.0271 0.21198,-8.226 2.3446,-2.2121 6.027,-2.0929 8.2392,0.25168 z"
       id="path3817"
       inkscape:connector-curvature="0" />
    <path
       d="m 654.64208,417.08283 c 2.2122,2.3446 2.1062,6.0403 -0.22516,8.2392 -2.33136,2.1989 -6.0138,2.0796 -8.226,-0.26495 -2.2122,-2.34455 -2.1194,-6.0271 0.22522,-8.2392 2.3313,-2.1975 6.0138,-2.0796 8.2259,0.26495 z"
       id="path3819"
       inkscape:connector-curvature="0" />
    <path
       d="m 655.82803,432.42783 c 2.2121,2.3446 2.1194,6.0271 -0.21198,8.226 -2.3459,2.2121 -6.027,2.0929 -8.2392,-0.25168 -2.2121,-2.3446 -2.1061,-6.0403 0.22522,-8.2392 2.3326,-2.1976 6.0138,-2.0916 8.226,0.26492 z"
       id="path3821"
       inkscape:connector-curvature="0" />
    <path
       d="m 668.26887,262.73799 c 3.0069,0.79477 4.9011,3.8944 4.2653,6.9543 -0.64911,3.0732 -3.6295,4.9674 -6.6629,4.1991 -3.0599,-0.75504 -4.9938,-3.9076 -4.3183,-7.0073 0.69012,-3.0864 3.6957,-4.9409 6.7159,-4.1461 z"
       id="path3829"
       inkscape:connector-curvature="0" />
    <path
       d="m 678.64027,274.75045 c 3.1128,0.74179 5.0733,3.9076 4.3845,7.0735 -0.68884,3.1924 -3.7884,5.2058 -6.9411,4.5038 -3.1658,-0.7153 -5.1661,-3.9341 -4.4375,-7.153 0.72858,-3.2069 3.8679,-5.1793 6.9941,-4.4243 z"
       id="path3831"
       inkscape:connector-curvature="0" />
    <path
       d="m 655.83236,252.69842 c 3.2586,0.72855 5.2853,3.9739 4.5303,7.2457 -0.75507,3.2983 -4.0269,5.4177 -7.3384,4.7157 -3.3248,-0.7153 -5.3913,-4.0004 -4.5965,-7.3252 0.7948,-3.3116 4.1196,-5.3899 7.4047,-4.6362 z"
       id="path3833"
       inkscape:connector-curvature="0" />
    <path
       inkscape:connector-curvature="0"
       id="path33"
       d="m 653.34963,448.08361 c 2.2121,2.3446 2.1194,6.0271 -0.21198,8.226 -2.3459,2.2121 -6.027,2.0929 -8.2392,-0.25168 -2.2121,-2.3446 -2.1061,-6.0403 0.22522,-8.2392 2.3326,-2.1976 6.0138,-2.0916 8.226,0.26492 z" />
    <path
       d="m 646.55683,462.36964 c 2.2121,2.3446 2.1194,6.0271 -0.21198,8.226 -2.3459,2.2121 -6.027,2.0929 -8.2392,-0.25168 -2.2121,-2.3446 -2.1061,-6.0403 0.22522,-8.2392 2.3326,-2.1976 6.0138,-2.0916 8.226,0.26492 z"
       id="path35"
       inkscape:connector-curvature="0" />
    <path
       inkscape:connector-curvature="0"
       id="path37"
       d="m 686.53177,288.85949 c 3.1128,0.74179 5.0733,3.9076 4.3845,7.0735 -0.68884,3.1924 -3.7884,5.2058 -6.9411,4.5038 -3.1658,-0.7153 -5.1661,-3.9341 -4.4375,-7.153 0.72858,-3.2069 3.8679,-5.1793 6.9941,-4.4243 z" />
    <path
       d="m 690.11881,303.92507 c 3.1128,0.74179 5.0733,3.9076 4.3845,7.0735 -0.68884,3.1924 -3.7884,5.2058 -6.9411,4.5038 -3.1658,-0.7153 -5.1661,-3.9341 -4.4375,-7.153 0.72858,-3.2069 3.8679,-5.1793 6.9941,-4.4243 z"
       id="path39"
       inkscape:connector-curvature="0" />
  </g>
</svg>
