<?xml version="1.0" encoding="UTF-8" standalone="no"?>
<svg
   xmlns:dc="http://purl.org/dc/elements/1.1/"
   xmlns:cc="http://creativecommons.org/ns#"
   xmlns:rdf="http://www.w3.org/1999/02/22-rdf-syntax-ns#"
   xmlns:svg="http://www.w3.org/2000/svg"
   xmlns="http://www.w3.org/2000/svg"
   xmlns:sodipodi="http://sodipodi.sourceforge.net/DTD/sodipodi-0.dtd"
   xmlns:inkscape="http://www.inkscape.org/namespaces/inkscape"
   viewBox="0 0 500 500"
   version="1.1"
   id="svg3843"
   sodipodi:docname="backgroundvector.svg"
   inkscape:version="0.92.1 r15371">
  <metadata
     id="metadata3849">
    <rdf:RDF>
      <cc:Work
         rdf:about="">
        <dc:format>image/svg+xml</dc:format>
        <dc:type
           rdf:resource="http://purl.org/dc/dcmitype/StillImage" />
      </cc:Work>
    </rdf:RDF>
  </metadata>
  <defs
     id="defs3847" />
  <sodipodi:namedview
     pagecolor="#ffffff"
     bordercolor="#666666"
     borderopacity="1"
     objecttolerance="10"
     gridtolerance="10"
     guidetolerance="10"
     inkscape:pageopacity="0"
     inkscape:pageshadow="2"
     inkscape:window-width="2560"
     inkscape:window-height="1027"
     id="namedview3845"
     showgrid="false"
     inkscape:zoom="1.4142136"
     inkscape:cx="392.98263"
     inkscape:cy="232.13607"
     inkscape:window-x="-8"
     inkscape:window-y="-8"
     inkscape:window-maximized="1"
     inkscape:current-layer="svg3843" />
  <g
     transform="matrix(.73923 0 0 .73923 -28.067 -36.937)"
     fill="#ed5050"
     fill-rule="evenodd"
     id="g3841">
    <path
       d="m333.94 314.37c-14.306-20.306-12.968-49.422 8.7425-70.298 21.711-20.876 58.151-20.413 80.524 9.8023 22.731 30.705 21.658 83.69-12.16 116.28-33.831 32.599-89.995 30.387-122.77-17.326-31.977-46.561-28.188-123.55 20.836-170.68 48.972-47.077 131.68-47.104 183.78 20.611 54.071 70.272 53.475 194.3-25.79 270.75-50.667 48.892-278.09 105.47-407.16-0.96698l-0.053-1.4968c137.4 108.33 350.97 30.692 396.86-13.564 71.795-69.238 72.629-181.61 23.79-245.52-47.223-61.794-122.52-61.94-167.14-19.035-44.667 42.944-48.018 113.1-18.85 155.43 29.831 43.289 80.842 45.223 111.55 15.644 30.692-29.579 31.725-77.676 11.114-105.6-20.307-27.513-53.449-27.976-73.199-8.981-19.75 19.008-20.969 45.051-7.9345 63.516 13.154 18.651 12.332 21.962-2.1326 1.4306z"
       id="path3781" />
    <path
       d="m475.93 574.53c-2.0267 12.372 6.1198 27.499 20.585 32.136 14.452 4.623 30.864-3.6427 34.374-22.24 3.5633-18.902-8.5571-42.653-31.089-49.992-22.611-7.3518-47.753 6.0668-52.124 35.01-4.2521 28.215 14.544 62.244 47.236 72.629 32.546 10.345 69.927-7.9742 78.67-49.952 9.0604-43.607-18.293-99.652-71.093-117.04-33.924-11.18-60.549-5.484-85.677 16.068l6.8483 7.9743c22.823-19.432 46.932-24.559 77.65-14.452 47.832 15.723 72.775 66.43 64.682 106.02-7.8286 38.268-41.832 55.012-71.504 45.567-29.791-9.4711-46.879-40.507-42.958-66.178 4.0136-26.281 26.85-38.428 47.369-31.751 20.452 6.6496 31.486 28.201 28.281 45.382-3.1659 16.916-18.094 24.453-31.235 20.24-13.18-4.2123-20.585-17.988-18.73-29.248 1.8677-11.364 0.75504-12.689-1.2849-0.17224z"
       id="path3783" />
    <path
       d="m300.12 565.09c-8.0935 1.1127-15.988 9.1267-16.147 19.088-0.17221 9.9479 8.0802 18.651 20.32 17.273 12.438-1.404 24.969-13.591 25.287-29.129 0.33115-15.578-12.743-28.758-31.592-25.923-18.399 2.7552-36.056 21.101-36.374 43.594-0.3179 22.4 18.108 42.295 45.912 39.686 28.877-2.7023 58.641-30.652 59.542-67.092 0.58286-23.419-7.961-39.01-26.122-50.614l-3.6692 5.8284c16.399 10.571 24.122 24.691 23.605 45.885-0.80804 33.023-27.698 58.429-53.899 60.973-25.3 2.4638-42.123-15.631-41.832-36.056 0.30466-20.492 16.425-37.182 33.156-39.673 17.127-2.5433 28.983 9.4314 28.692 23.578-0.29141 14.107-11.644 25.181-22.956 26.466-11.127 1.2849-18.638-6.6231-18.492-15.684 0.15897-9.0605 7.3517-16.359 14.703-17.366 7.4312-1.0213 8.0524-1.9618-0.13248-0.83453z"
       id="path3785" />
    <path
       d="m240.65 485.31c3.3778-4.5832 3.1924-12.398-1.7353-17.26-4.9144-4.8481-13.286-4.8879-18.545 1.9075-5.3382 6.9146-5.3118 19.035 2.3314 26.665 7.6696 7.6431 20.638 7.4047 28.374-3.4175 7.5504-10.544 6.9278-28.201-4.2123-39.156-11.087-10.902-30.043-11.206-42.242 3.9871-12.664 15.776-13.101 44.11 4.7554 62.059 11.471 11.524 23.459 14.717 38.096 11.18l-1.1392-4.6495c-13.273 3.1659-24.122 0.25171-34.507-10.173-16.187-16.24-15.869-41.911-4.411-56.27 11.061-13.882 28.321-13.63 38.428-3.6825 10.147 9.9745 10.69 26.069 3.8017 35.659-7.047 9.8022-18.823 10.001-25.777 3.0731-6.9411-6.9146-6.9808-17.922-2.1327-24.214 4.7687-6.1993 12.385-6.1728 16.862-1.7485 4.4772 4.4243 4.6494 11.538 1.5763 15.71-3.0996 4.2123-2.9274 4.9806 0.47685 0.33115z"
       id="path3787" />
    <path
       d="m379.88 355.8c7.4842-7.961 18.015-35.301 17.339-50.76-1.02-23.314-13.22-25.817-25.088-25.473-15.896 0.45038-19.684 4.4905-19.101 16.24 0.97891 19.484 37.896 44.215 26.85 59.992z"
       id="path3789" />
    <path
       d="m461.71 368.72c5.6164 15.339-13.14 56.866-28.029 73.543-22.055 24.691-41.381 21.658-53.396 10.544-15.922-14.743-16.333-22.506-5.6297-34.824 18.002-20.73 84.42-20.97 87.055-49.263z"
       id="path3791" />
    <path
       d="m464.72 188.9c-9.2194-5.7092-26.426-29.248-29.791-44.15-5.0204-22.214 4.4507-32.215 15.578-34.864 14.809-3.5103 31.486 4.2256 21.936 10.306-18.982 12.081-22.413 56.375-7.7226 68.708z"
       id="path3793" />
    <path
       d="m493.95 205.79c-6.5967-4.1196-18.889-21.088-21.3-31.844-3.5765-16.015 3.1923-23.234 11.14-25.142 10.584-2.53 22.506 3.0466 15.67 7.4312-13.563 8.7147-16.015 40.666-5.5104 49.554z"
       id="path3795" />
    <path
       d="m572.81 573.37c-1.616 4.6892-0.76831 18.148 2.5168 24.559 4.9276 9.6433 11.445 10.478 16.266 8.0935 6.398-3.1394 9.9612-10.888 4.7156-10.279-10.491 1.2305-25.102-13.751-23.499-22.373z"
       id="path3797" />
    <path
       d="m219.12 449.76c3.0334-0.45038 10.08-4.5302 12.558-7.8418 3.5765-4.8084 2.2916-8.1465-0.13246-9.9069-3.2189-2.3314-8.0935-2.2651-6.4377 0.11923 3.3248 4.819-0.78154 16.093-5.9873 17.63z"
       id="path3799" />
    <path
       d="m541.6 389.75c21.79 3.8812 79.849-8.2657 105.2-26.108 37.765-26.559 37.169-54.442 24.068-73.517-17.498-25.473-28.162-27.486-47.091-14.399-31.751 21.95-43.104 115.34-82.18 114.02z"
       id="path3801" />
    <path
       d="m506.67 448.82c13.127 12.359 58.416 29.884 83.942 28.89 38.11-1.4836 50.23-21.075 49.687-40.136-0.71527-25.353-7.1928-31.46-26.122-30.824-31.672 1.0862-81.398 60.363-107.51 42.07z"
       id="path3803" />
    <path
       d="m 649.32785,402.5536 c 2.2121,2.3446 2.1061,6.0403 -0.22522,8.2392 -2.3314,2.1989 -6.0138,2.0929 -8.226,-0.26492 -2.2121,-2.3446 -2.1194,-6.0271 0.21198,-8.226 2.3446,-2.2121 6.027,-2.0929 8.2392,0.25168 z"
       id="path3817"
       inkscape:connector-curvature="0" />
    <path
       d="m 654.64208,417.08283 c 2.2122,2.3446 2.1062,6.0403 -0.22516,8.2392 -2.33136,2.1989 -6.0138,2.0796 -8.226,-0.26495 -2.2122,-2.34455 -2.1194,-6.0271 0.22522,-8.2392 2.3313,-2.1975 6.0138,-2.0796 8.2259,0.26495 z"
       id="path3819"
       inkscape:connector-curvature="0" />
    <path
       d="m 655.82803,432.42783 c 2.2121,2.3446 2.1194,6.0271 -0.21198,8.226 -2.3459,2.2121 -6.027,2.0929 -8.2392,-0.25168 -2.2121,-2.3446 -2.1061,-6.0403 0.22522,-8.2392 2.3326,-2.1976 6.0138,-2.0916 8.226,0.26492 z"
       id="path3821"
       inkscape:connector-curvature="0" />
    <path
       d="m 668.26887,262.73799 c 3.0069,0.79477 4.9011,3.8944 4.2653,6.9543 -0.64911,3.0732 -3.6295,4.9674 -6.6629,4.1991 -3.0599,-0.75504 -4.9938,-3.9076 -4.3183,-7.0073 0.69012,-3.0864 3.6957,-4.9409 6.7159,-4.1461 z"
       id="path3829"
       inkscape:connector-curvature="0" />
    <path
       d="m 678.64027,274.75045 c 3.1128,0.74179 5.0733,3.9076 4.3845,7.0735 -0.68884,3.1924 -3.7884,5.2058 -6.9411,4.5038 -3.1658,-0.7153 -5.1661,-3.9341 -4.4375,-7.153 0.72858,-3.2069 3.8679,-5.1793 6.9941,-4.4243 z"
       id="path3831"
       inkscape:connector-curvature="0" />
    <path
       d="m 655.83236,252.69842 c 3.2586,0.72855 5.2853,3.9739 4.5303,7.2457 -0.75507,3.2983 -4.0269,5.4177 -7.3384,4.7157 -3.3248,-0.7153 -5.3913,-4.0004 -4.5965,-7.3252 0.7948,-3.3116 4.1196,-5.3899 7.4047,-4.6362 z"
       id="path3833"
       inkscape:connector-curvature="0" />
    <path
       inkscape:connector-curvature="0"
       id="path33"
       d="m 653.34963,448.08361 c 2.2121,2.3446 2.1194,6.0271 -0.21198,8.226 -2.3459,2.2121 -6.027,2.0929 -8.2392,-0.25168 -2.2121,-2.3446 -2.1061,-6.0403 0.22522,-8.2392 2.3326,-2.1976 6.0138,-2.0916 8.226,0.26492 z" />
    <path
       d="m 646.55683,462.36964 c 2.2121,2.3446 2.1194,6.0271 -0.21198,8.226 -2.3459,2.2121 -6.027,2.0929 -8.2392,-0.25168 -2.2121,-2.3446 -2.1061,-6.0403 0.22522,-8.2392 2.3326,-2.1976 6.0138,-2.0916 8.226,0.26492 z"
       id="path35"
       inkscape:connector-curvature="0" />
    <path
       inkscape:connector-curvature="0"
       id="path37"
       d="m 686.53177,288.85949 c 3.1128,0.74179 5.0733,3.9076 4.3845,7.0735 -0.68884,3.1924 -3.7884,5.2058 -6.9411,4.5038 -3.1658,-0.7153 -5.1661,-3.9341 -4.4375,-7.153 0.72858,-3.2069 3.8679,-5.1793 6.9941,-4.4243 z" />
    <path
       d="m 690.11881,303.92507 c 3.1128,0.74179 5.0733,3.9076 4.3845,7.0735 -0.68884,3.1924 -3.7884,5.2058 -6.9411,4.5038 -3.1658,-0.7153 -5.1661,-3.9341 -4.4375,-7.153 0.72858,-3.2069 3.8679,-5.1793 6.9941,-4.4243 z"
       id="path39"
       inkscape:connector-curvature="0" />
  </g>
  <path
     style="fill:#ffaaaa;stroke-width:0.70710677"
     d="m 340.21314,438.00886 c -9.41522,-2.46846 -18.45945,-8.25209 -25.09346,-16.04687 -18.17167,-21.3512 -15.8356,-51.68918 4.77736,-62.04248 9.84559,-4.94516 23.09835,-3.04466 32.35027,4.63915 10.37791,8.61896 15.0939,24.84424 10.24606,35.2514 -3.82009,8.20083 -9.40992,12.02605 -17.55606,12.01391 -4.59149,-0.007 -11.16659,-2.22013 -12.36739,-4.16306 -0.65395,-1.05811 -0.54087,-1.02547 3.43368,0.99095 2.58571,1.31181 4.59195,1.7648 7.81611,1.7648 15.08356,0 22.93845,-16.48631 15.62219,-32.78877 -8.34308,-18.59046 -31.95283,-23.99388 -45.512,-10.41605 -5.86963,5.8777 -8.58101,13.14498 -8.61122,23.08049 -0.0646,21.21899 16.51227,40.88634 37.58261,44.58947 20.26555,3.56168 39.31061,-8.66588 46.36589,-29.76844 1.74238,-5.21152 1.88918,-6.54753 1.86465,-16.97056 -0.024,-10.20647 -0.21195,-11.92159 -1.92023,-17.52499 -5.24878,-17.21679 -15.18204,-31.13732 -29.06882,-40.73725 -6.44666,-4.45657 -12.4142,-7.24348 -20.57295,-9.6078 -13.70317,-3.97101 -26.4135,-3.84675 -32.46592,0.31743 -4.6885,3.22577 -16.9205,9.53102 -25.30307,13.043 -9.44097,3.95542 -28.71908,10.207 -39.43195,12.78715 -4.47245,1.07718 -8.3883,2.18878 -8.70189,2.47023 -0.31359,0.28145 0.18445,1.43249 1.10675,2.55786 2.72111,3.32024 4.54413,6.70245 6.24816,11.59208 2.36427,6.78414 2.3844,20.76095 0.0407,28.28427 -4.63641,14.88317 -14.7565,26.76187 -28.03868,32.91107 -6.84956,3.17112 -11.66435,4.09171 -19.51688,3.73163 -5.66619,-0.25983 -7.34422,-0.64051 -11.38134,-2.58196 -14.58933,-7.01602 -20.41869,-24.36492 -13.29896,-39.57944 2.86015,-6.11199 9.53244,-12.95401 15.49769,-15.89189 6.25939,-3.08276 14.23879,-3.56787 19.74249,-1.20025 4.03688,1.73663 8.16504,5.84667 9.82733,9.78423 1.38389,3.27809 1.52169,9.42109 0.30515,13.60358 -2.86415,9.847 -14.49127,17.33497 -22.97191,14.79411 -3.22783,-0.96709 -8.25561,-5.51077 -8.25561,-7.46074 0,-0.87041 0.48172,-0.54061 1.59099,1.08924 2.48388,3.64958 4.99934,5.13989 9.27377,5.49436 7.02703,0.58273 14.6227,-4.31839 18.19994,-11.74356 2.06128,-4.27851 2.22761,-12.01175 0.33722,-15.6783 -5.2065,-10.09845 -16.24819,-13.00024 -27.88266,-7.32764 -11.11965,5.42159 -18.72705,20.22819 -16.35929,31.84077 1.10303,5.40977 4.45959,11.65735 7.96392,14.82331 1.5469,1.39752 4.92008,3.53953 7.49597,4.76 4.28792,2.03165 5.28061,2.21795 11.75451,2.20599 5.51614,-0.0102 8.11956,-0.37237 11.83911,-1.64701 9.58226,-3.2837 19.71291,-11.65798 25.15727,-20.79569 4.12803,-6.92842 5.971,-13.36099 6.3333,-22.10542 0.48173,-11.62645 -2.07724,-20.0425 -8.28603,-27.25143 l -2.67455,-3.10539 -9.46704,1.57542 c -55.95008,9.31069 -106.55317,5.988 -149.474177,-9.81477 -8.642525,-3.18203 -28.356427,-12.46561 -27.752808,-13.06923 0.212351,-0.21235 2.252448,0.55604 4.53355,1.70754 22.62313,11.42012 51.653309,19.16472 78.727145,21.00264 l 7.42462,0.50403 -3.72246,-3.79891 c -8.05171,-8.21704 -10.95179,-15.12721 -10.94231,-26.07276 0.005,-5.39587 0.3515,-7.65406 1.76281,-11.47769 2.94934,-7.9906 8.8455,-14.2546 15.2674,-16.21986 2.09658,-0.6416 3.39635,-1.56282 4.09198,-2.9002 1.07303,-2.06298 1.48216,-7.59494 0.66008,-8.92509 -0.30515,-0.49374 0.1839,-0.78224 1.32604,-0.78224 1.81209,0 4.63793,2.17556 4.63793,3.57065 0,1.42976 -2.10935,4.80257 -3.86932,6.18697 l -1.77626,1.3972 3.35312,0.50029 c 4.92111,0.73423 7.508,2.01755 11.39383,5.65229 4.27603,3.99973 6.41311,8.72753 6.80898,15.06337 l 0.29693,4.75233 -0.71142,-4.56747 c -1.84409,-11.83943 -9.22368,-19.13003 -19.347,-19.1137 -10.81601,0.0175 -19.51681,8.92056 -21.58822,22.09018 -2.04958,13.03085 5.40839,27.96597 16.73141,33.5058 3.77151,1.84523 3.89254,1.85644 14.91721,1.38067 6.11317,-0.2638 15.88783,-0.94109 21.72146,-1.50507 55.22739,-5.33928 115.22708,-27.44785 138.93177,-51.1933 32.87678,-32.93331 47.32012,-82.25295 37.83434,-129.19284 -9.06398,-44.85263 -37.87499,-77.584801 -75.20186,-85.436748 -25.84605,-5.436884 -53.11108,2.950425 -72.24666,22.224618 -17.3074,17.43278 -26.4067,40.27212 -26.35201,66.14387 0.0503,23.82686 7.85971,43.53429 23.01559,58.08148 17.29571,16.60106 39.4449,20.29519 60.49739,10.08998 6.27726,-3.04291 8.13192,-4.38029 13.43503,-9.68791 7.25656,-7.26273 11.86451,-14.62574 14.93821,-23.86969 5.37853,-16.17555 4.16088,-33.56237 -3.36504,-48.04889 -3.27791,-6.30962 -12.27507,-15.51658 -17.79511,-18.21009 -14.58281,-7.11568 -30.02537,-4.519 -41.38294,6.95858 -7.30824,7.38546 -10.94296,16.07274 -10.94296,26.15461 0,7.91574 1.84574,13.49761 7.11843,21.52748 2.35014,3.57906 4.12314,6.65722 3.94001,6.84034 -0.52863,0.52864 -7.52238,-9.66287 -9.41827,-13.72461 -4.95779,-10.62149 -4.69409,-21.86863 0.77406,-33.01424 6.65442,-13.56357 18.34962,-21.8161 32.37669,-22.84609 11.56713,-0.84936 21.44051,2.97439 30.24886,11.71475 14.2081,14.09843 19.64238,34.71851 15.10475,57.31414 -2.5423,12.65968 -8.29098,23.05964 -18.2277,32.97583 -5.89073,5.87855 -8.23945,7.67873 -13.64007,10.45448 -10.82003,5.56114 -21.93286,7.65491 -32.88989,6.19681 -13.7158,-1.82523 -25.31876,-7.7424 -35.62573,-18.16807 -15.26869,-15.44452 -23.60176,-37.51375 -23.60176,-62.50666 0,-27.1267 9.56486,-51.54331 27.52741,-70.27029 13.77905,-14.365457 29.85646,-22.991361 49.09772,-26.342075 4.85953,-0.846248 9.17519,-1.032424 17.42007,-0.751498 11.91445,0.405959 19.55934,1.961627 29.44145,5.991078 l 5.04627,2.057626 -2.33686,-4.876183 c -4.1257,-8.6089 -4.82412,-18.567551 -1.72783,-24.636786 1.69303,-3.318611 5.59276,-6.587196 9.11999,-7.64398 3.37355,-1.010741 10.16398,-1.035574 13.71268,-0.05015 2.65686,0.737777 5.43416,2.855932 5.43416,4.144466 0,0.362335 -1.62231,2.191973 -3.60513,4.065864 -6.08415,5.749912 -9.18169,12.741516 -10.45899,23.607513 -1.06449,9.055613 -0.58138,10.503928 4.82985,14.479474 2.50487,1.840288 6.0846,4.777385 7.95495,6.526882 1.87035,1.749496 3.40064,3.016709 3.40064,2.816039 0,-0.20068 -0.86389,-2.23296 -1.91975,-4.516182 -1.58209,-3.421136 -1.92412,-5.168067 -1.94454,-9.931915 -0.0268,-6.255481 0.7752,-8.108685 4.81447,-11.124432 3.83166,-2.860746 16.02038,-2.011103 16.02038,1.116736 0,0.435817 -1.38528,2.273379 -3.07841,4.083471 -4.82336,5.156559 -6.38469,9.998964 -6.42999,19.942352 -0.0375,8.22041 -0.0327,8.24391 2.26524,11.31371 13.01818,17.39043 21.76705,37.0806 25.88966,58.26723 7.96637,40.94014 -0.2877,83.7654 -22.68463,117.69656 -4.62086,7.00056 -14.09885,18.98922 -16.69942,21.12301 -0.65052,0.53376 -1.18276,1.20244 -1.18276,1.48596 0,0.28353 2.62514,0.71177 5.83363,0.95167 12.44689,0.93063 29.03092,7.34659 39.48718,15.27664 18.81794,14.27157 30.61225,37.16496 31.26849,60.69382 l 0.20231,7.25366 3.14672,3.23452 c 3.63762,3.73911 7.11775,5.71648 11.21356,6.37143 3.37085,0.53902 3.59932,1.45569 1.10241,4.42309 -4.84711,5.76046 -12.38004,3.51373 -15.30081,-4.56354 -1.12154,-3.10155 -1.72396,-3.03939 -2.33944,0.24139 -0.27317,1.4561 -1.26588,4.5405 -2.20603,6.85422 -8.64203,21.26817 -30.94622,32.8933 -52.34551,27.28291 z"
     id="path38"
     inkscape:connector-curvature="0" />
  <path
     style="fill:#ffaaaa;stroke-width:0.70710677"
     d="m 378.30024,250.67424 c 7.90438,-2.62796 15.97932,-12.48944 23.79138,-29.05509 1.55892,-3.30572 5.65907,-12.25876 9.11145,-19.89564 8.53157,-18.87239 11.50664,-23.93423 17.84201,-30.35666 8.7175,-8.83731 17.06507,-11.85301 23.93476,-8.64685 5.78448,2.69967 15.44942,14.51438 18.46356,22.57039 6.37532,17.03958 -3.51477,35.70046 -25.9684,48.99788 -9.71817,5.75526 -28.13284,11.86387 -45.06775,14.9501 -8.11735,1.47931 -25.66598,2.61911 -22.10701,1.43587 z"
     id="path40"
     inkscape:connector-curvature="0" />
  <path
     style="fill:#ffaaaa;stroke-width:0.70710677"
     d="m 392.98263,314.33635 c -8.84168,-1.94432 -15.66144,-4.07837 -24.39518,-7.63376 -6.43898,-2.62123 -18.03122,-8.38914 -18.03122,-8.97174 0,-0.0862 2.14783,-0.18549 4.77297,-0.22059 8.27338,-0.11063 15.21994,-3.35574 35.83851,-16.74209 19.9646,-12.96176 28.24414,-16.7265 36.76827,-16.71867 5.87138,0.005 9.20179,1.06482 11.93289,3.79592 2.69476,2.69476 3.97103,6.45289 4.66747,13.74389 1.58677,16.61203 -4.65348,26.41153 -20.16425,31.66535 -7.61363,2.57889 -22.28236,3.08438 -31.38946,1.08169 z"
     id="path42"
     inkscape:connector-curvature="0" />
  <path
     style="fill:#ffaaaa;stroke-width:0.70710677"
     d="m 262.87498,303.0247 c -8.90122,-2.93094 -19.09188,-13.67744 -19.09188,-20.13322 0,-5.48676 6.40609,-13.05804 14.3836,-16.9998 2.80789,-1.38741 12.25495,-4.87435 20.99345,-7.74875 8.73851,-2.87441 17.99579,-6.2264 20.57174,-7.44887 5.51061,-2.61519 10.73117,-6.99329 12.63473,-10.59582 l 1.35755,-2.56919 0.0312,2.68146 c 0.0488,4.19177 -1.99005,13.00244 -4.53835,19.61146 -10.03425,26.02386 -25.37267,42.67613 -40.09183,43.526 -2.46537,0.14235 -5.27798,-0.003 -6.25026,-0.32327 z"
     id="path44"
     inkscape:connector-curvature="0" />
  <path
     style="fill:#ffaaaa;stroke-width:0.70710677"
     d="m 254.3828,220.8926 c -0.0107,-3.79119 -2.9422,-9.25284 -10.28372,-19.15925 -8.08224,-10.90593 -10.92549,-16.50298 -10.9116,-21.47995 0.0195,-6.9989 3.05593,-9.50058 12.21184,-10.06129 9.47556,-0.58029 14.3909,1.60751 17.6415,7.85214 2.28934,4.39801 2.56011,14.41547 0.61097,22.6036 -1.49847,6.29491 -6.07199,18.14568 -8.14519,21.10559 -1.1097,1.58432 -1.11694,1.57877 -1.1238,-0.86084 z"
     id="path46"
     inkscape:connector-curvature="0" />
  <path
     style="fill:#ffaaaa;stroke-width:0.70710677"
     d="m 446.01564,266.16688 c -1.70195,-1.70195 -1.76824,-2.71542 -0.31346,-4.79241 2.53244,-3.61556 8.31747,-0.58191 6.75038,3.53986 -1.11344,2.92856 -4.16676,3.5227 -6.43692,1.25255 z"
     id="path48"
     inkscape:connector-curvature="0" />
  <path
     style="fill:#ffaaaa;stroke-width:0.70710677"
     d="m 449.95524,277.07652 c -2.33741,-2.3374 -0.45363,-6.667 2.90078,-6.667 1.79838,0 3.76622,2.12711 3.76622,4.07103 0,3.23839 -4.33618,4.9268 -6.667,2.59597 z"
     id="path50"
     inkscape:connector-curvature="0" />
  <path
     style="fill:#ffaaaa;stroke-width:0.70710677"
     d="m 450.72143,288.20829 c -3.31391,-3.66183 2.00691,-8.86373 5.49675,-5.3739 1.31498,1.31498 1.46403,4.61709 0.26264,5.81848 -1.26801,1.26802 -4.43044,1.0239 -5.75939,-0.44458 z"
     id="path52"
     inkscape:connector-curvature="0" />
  <path
     style="fill:#ffaaaa;stroke-width:0.70710677"
     d="m 449.70626,300.41989 c -2.96017,-2.07339 -1.17871,-7.38295 2.47712,-7.38295 1.33673,0 3.73176,2.63617 3.73176,4.10749 0,3.12405 -3.6648,5.0574 -6.20888,3.27546 z"
     id="path54"
     inkscape:connector-curvature="0" />
  <path
     style="fill:#ffaaaa;stroke-width:0.70710677"
     d="m 445.14043,311.36993 c -2.05541,-1.1975 -2.8211,-3.27293 -1.87224,-5.07474 1.59467,-3.02814 4.0155,-3.50493 6.28298,-1.23744 1.86621,1.8662 1.78405,3.22998 -0.32141,5.33544 -1.92316,1.92316 -2.30736,2.01493 -4.08933,0.97674 z"
     id="path56"
     inkscape:connector-curvature="0" />
  <path
     style="fill:#ffaaaa;stroke-width:0.70710677"
     d="m 453.24404,157.58589 c -3.20912,-2.24775 -1.21726,-7.38452 2.86345,-7.38452 1.8521,0 4.05029,2.21353 4.05029,4.07856 0,1.21252 -3.1942,4.40672 -4.40672,4.40672 -0.51451,0 -1.64266,-0.49534 -2.50702,-1.10076 z"
     id="path58"
     inkscape:connector-curvature="0" />
  <path
     style="fill:#ffaaaa;stroke-width:0.70710677"
     d="m 462.43287,164.16672 c -1.71314,-2.08426 -1.26131,-5.32794 0.87792,-6.30264 3.58038,-1.63133 7.25658,3.56516 4.48374,6.338 -1.11121,1.11121 -4.43728,1.08928 -5.36166,-0.0354 z"
     id="path60"
     inkscape:connector-curvature="0" />
  <path
     style="fill:#ffaaaa;stroke-width:0.70710677"
     d="m 469.75423,173.13183 c -2.35979,-2.35978 -0.44756,-6.66701 2.95986,-6.66701 3.07627,0 5.03647,4.75179 2.85861,6.92965 -1.20139,1.20139 -4.5035,1.05234 -5.81847,-0.26264 z"
     id="path62"
     inkscape:connector-curvature="0" />
  <path
     style="fill:#ffaaaa;stroke-width:0.70710677"
     d="m 475.24216,183.00035 c -1.08515,-1.65615 -1.10301,-2.04379 -0.17102,-3.71231 0.70672,-1.26523 1.73361,-1.93138 3.20015,-2.07595 2.54056,-0.25045 3.98357,1.15223 3.98357,3.87223 0,3.78181 -4.91101,5.12361 -7.0127,1.91603 z"
     id="path64"
     inkscape:connector-curvature="0" />
  <path
     style="fill:#ffaaaa;stroke-width:0.70710677"
     d="m 478.69989,195.06255 c -1.9621,-1.37431 -2.03377,-4.09388 -0.15734,-5.97031 1.70195,-1.70195 2.71542,-1.76824 4.79241,-0.31346 1.94034,1.35906 2.08464,4.57968 0.27844,6.21427 -1.61393,1.46059 -2.90146,1.4788 -4.91351,0.0695 z"
     id="path66"
     inkscape:connector-curvature="0" />
</svg>
